<?xml version="1.0" standalone="no"?>
<!DOCTYPE svg PUBLIC "-//W3C//DTD SVG 20010904//EN"
 "http://www.w3.org/TR/2001/REC-SVG-20010904/DTD/svg10.dtd">
<svg version="1.0" xmlns="http://www.w3.org/2000/svg"
 width="305.000000pt" height="305.000000pt" viewBox="0 0 305.000000 305.000000"
 preserveAspectRatio="xMidYMid meet">
<metadata>
Created by potrace 1.14, written by Peter Selinger 2001-2017
</metadata>
<g transform="translate(0.000000,305.000000) scale(0.100000,-0.100000)"
fill="#000000" stroke="none">
<path d="M1405 2878 c-368 -42 -696 -276 -855 -610 -278 -586 19 -1281 637
-1487 138 -47 320 -67 448 -50 112 15 141 22 227 50 483 158 798 649 734 1149
-4 30 -7 58 -7 62 -1 39 -59 211 -96 287 -200 408 -637 649 -1088 599z"/>
<path d="M81 278 l0 -278 50 0 49 0 0 280 0 280 -49 -1 -50 -2 0 -279z"/>
<path d="M412 518 c-6 -24 -14 -63 -18 -88 -4 -25 -8 -47 -9 -50 -2 -5 -16
-74 -20 -100 -2 -8 -15 -71 -29 -139 -14 -68 -26 -128 -26 -132 0 -5 22 -9 50
-9 l49 0 13 60 c12 62 13 62 68 62 56 0 58 -1 66 -49 4 -27 8 -52 8 -58 1 -5
25 -11 54 -13 57 -3 59 -1 42 58 -5 19 -11 49 -14 65 -3 17 -24 119 -46 228
-22 108 -40 199 -40 202 0 3 -31 5 -69 5 l-69 0 -10 -42z m94 -205 c20 -86 19
-93 -16 -90 -16 1 -30 5 -30 9 0 22 25 147 28 143 3 -2 11 -30 18 -62z"/>
<path d="M798 553 c-3 -7 -2 -482 1 -535 1 -15 10 -18 50 -18 l49 0 -2 145 c0
79 2 141 6 137 4 -4 15 -29 25 -57 18 -48 20 -50 59 -51 42 -2 49 6 69 74 15
50 22 15 20 -100 0 -68 1 -129 3 -135 3 -8 22 -13 51 -13 l48 0 0 280 0 281
-55 -3 -54 -3 -41 -104 -40 -105 -41 105 -41 104 -52 3 c-28 2 -53 -1 -55 -5z"/>
<path d="M1319 518 c0 -57 0 -433 0 -480 l1 -38 50 0 50 0 0 98 0 98 68 -1
c65 -1 68 0 105 36 l37 37 0 109 0 109 -38 37 -38 37 -117 0 -117 0 -1 -42z
m209 -131 c3 -77 -6 -95 -45 -91 -16 1 -36 2 -45 3 -16 1 -18 12 -18 82 l0 80
53 -3 52 -3 3 -68z"/>
<path d="M1865 533 c-4 -16 -10 -46 -15 -68 -5 -22 -12 -56 -15 -75 -3 -19
-10 -53 -15 -75 -5 -22 -11 -53 -14 -70 -3 -16 -15 -74 -26 -129 -11 -54 -20
-102 -20 -107 0 -5 22 -9 49 -9 l50 0 12 59 11 59 45 4 c57 4 69 -4 77 -49 13
-73 13 -73 67 -73 46 0 49 2 44 23 -10 45 -105 525 -105 531 0 3 -31 6 -70 6
-68 0 -70 -1 -75 -27z m91 -225 c18 -86 18 -86 -16 -84 -16 0 -30 4 -30 9 0
24 24 147 28 143 2 -3 10 -33 18 -68z"/>
<path d="M2249 553 c0 -5 -1 -114 -2 -243 l-2 -235 39 -37 c39 -38 39 -38 126
-38 l86 0 37 38 37 38 0 242 0 242 -50 0 -50 0 -2 -227 -3 -228 -49 -3 c-27
-2 -53 1 -59 7 -6 6 -10 94 -10 231 l0 220 -49 0 c-26 0 -48 -3 -49 -7z"/>
<path d="M2710 280 l0 -280 130 0 130 0 0 50 0 50 -81 0 c-77 0 -80 1 -79 23
1 12 2 115 1 230 l-1 207 -50 0 -50 0 0 -280z"/>
</g>
</svg>
