<svg width="288.65157042056757" height="304.91562500000003" viewBox="0 0 350 369.7207279853266" class="css-1j8o68f"><defs id="SvgjsDefs1547"></defs><g id="SvgjsG1548" featurekey="symbolContainer" transform="matrix(5.236,0,0,5.236,44,20)" fill="#111111"><circle cx="25" cy="25" r="25"></circle></g><g id="SvgjsG1549" featurekey="monogramFeature-0" transform="matrix(4.144464329756085,0,0,4.144464329756085,92.56660701073174,-4.166945183995338)" fill="#f6f6f6"><path d="M10.38 46.92 l0 -23.28 l-1.44 -0.42 c-0.54 -0.18 -0.84 -0.66 -0.84 -1.2 l0 -5.88 c0 -0.42 0.48 -1.14 0.9 -1.14 l16.8 0 c6 0 9.9 2.58 10.62 8.76 l0.24 1.74 l0.12 2.58 l0 2.58 c0 7.8 -2.46 12.66 -10.56 12.66 l-7.68 0.06 l0 1.02 l0.78 0 l-0.78 0.54 l0 0.96 l2.04 -1.5 l0.96 0 l-3 2.22 l0 0.3 l0.6 0.24 l3.72 -2.76 l0.9 0 l-3.84 2.94 c0.48 0.18 1.02 0.6 1.02 1.26 l0 5.82 c0 0.54 -0.48 1.2 -1.02 1.2 l-10.86 0 c-0.54 0 -0.96 -0.66 -0.96 -1.2 l0 -5.88 c0 -0.48 0.36 -0.96 0.84 -1.08 z M3 20.82 l1.92 -1.44 l0.96 0 l-2.88 2.16 l0 -0.72 z M3 22.5 l4.08 -3.12 l0 0.78 l-4.08 3.06 l0 -0.72 z M3 24.18 l4.08 -3.12 l0 0.72 l-4.08 3.12 l0 -0.72 z M3 26.520000000000003 l0 -0.66 l4.02 -3.06 c0.12 0.18 0.18 0.42 0.18 0.66 z M18.54 23.939999999999998 l0 1.92 l1.2 -0.9 l0.96 0 l-2.16 1.62 l0 0.96 l3.42 -2.58 l1.02 0 l-4.44 3.3 l0 6.18 l4.98 0 c0.06 -0.18 0.06 -0.48 0.06 -0.6 l4.08 -3.12 l0 0.24 l0 0.24 l0 0.3 l-3.9 2.94 l0.54 0 l0.48 0 c0.06 0 0.24 -0.06 0.24 -0.06 l2.58 -1.92 l0 0.06 c0 0.12 0.06 0.66 -0.12 0.78 l-1.38 1.02 c1.8 0.06 2.4 -1.02 2.46 -2.7 c0.06 -0.78 0.12 -1.5 0.12 -2.22 c0 -1.02 -0.06 -2.04 -0.18 -3.06 c-0.24 -2.16 -1.56 -2.4 -3.48 -2.4 l-6.48 0 z M3.3 27.299999999999997 l4.26 -3.24 c0.24 0.12 0.54 0.18 0.66 0.24 l-4.38 3.3 c-0.18 0 -0.42 -0.18 -0.54 -0.3 z M5.34 28.02 l-0.6 -0.12 l4.38 -3.3 c0.12 0 0.24 0 0.3 0.06 l0 0.42 l-4.08 3.12 l0 -0.18 z M19.74 28.32 l4.5 -3.36 c0.3 0 0.6 0 0.9 0.06 l-4.44 3.3 l-0.18 0 l-0.78 0 z M21.78 28.5 l4.32 -3.3 l0.06 0 s0.18 0.12 0.24 0.12 c0.12 0.06 0.18 0.12 0.3 0.18 l-4.32 3.24 l-0.06 0 c-0.12 -0.12 -0.42 -0.18 -0.54 -0.24 z M5.34 29.88 l0 -0.78 l4.08 -3.06 l0 0.72 z M22.98 29.22 l4.2 -3.12 c0.06 0 0.24 0.42 0.24 0.54 l-0.06 0.06 l-4.14 3.06 c-0.12 -0.12 -0.18 -0.3 -0.24 -0.54 z M23.4 30.6 l4.14 -3.06 s0.06 0.36 0.06 0.6 c0 0.06 0 0.06 -0.06 0.06 l-4.08 3.06 s-0.06 -0.42 -0.06 -0.66 z M5.34 30.78 l4.08 -3.06 l0 0.66 l-4.08 3.06 l0 -0.66 z M23.52 32.16 l0.06 0 l4.02 -3 c0.06 0.06 0.06 0.36 0.06 0.54 l0 0.12 l-4.08 3.06 c-0.06 -0.24 -0.06 -0.36 -0.06 -0.6 l0 -0.12 z M5.34 32.4 l4.08 -3.06 l0 0.72 l-4.08 3.06 l0 -0.72 z M5.34 34.8 l0 -0.72 l4.08 -3.06 l0 0.72 z M5.34 36.480000000000004 l0 -0.72 l4.08 -3.06 l0 0.72 z M5.34 37.44 l4.08 -3.06 l0 0.72 l-4.08 3.06 l0 -0.72 z M5.34 39.84 l0 -0.72 l4.08 -3.06 l0 0.72 z M5.34 41.519999999999996 l0 -0.72 l4.08 -3.12 l0 0.78 z M5.34 42.480000000000004 l4.08 -3.12 l0 0.78 l-4.08 3.06 l0 -0.72 z M5.34 44.16 l4.08 -3.12 l0 0.72 l-4.08 3.12 l0 -0.72 z M5.34 46.56 l0 -0.78 l4.08 -3.06 l0 0.72 z M23.04 47.58 l4.62 -3.42 l1.26 -0.24 l-4.62 3.48 z M26.16 44.28 l-4.5 3.42 l-0.84 0 l-0.24 0 l4.44 -3.3 c0.12 -0.12 1.02 -0.12 1.14 -0.12 z M5.34 47.46 l4.08 -3.06 l0 0.72 l-4.08 3.12 l0 -0.78 z M26.28 46.8 l3 -2.22 c0 0.48 -2.52 2.1 -3 2.22 z M5.34 49.14 l4.08 -3.06 l0 0.72 l-4.08 3.12 l0 -0.78 z M5.34 51.36 l0 -0.54 l1.8 -1.32 c0 0.24 0 0.66 -0.06 0.66 l-4.08 3.06 l0 -0.12 c0 -0.18 0 -0.54 0.12 -0.6 c0.12 -0.12 0.78 -0.6 1.02 -0.78 z M3 54.18 l4.08 -3.06 l0 0.72 l-4.08 3.12 l0 -0.78 z M3 55.86 l4.08 -3.06 l0 0.72 l-4.08 3.06 l0 -0.72 z M3 58.26 l0 -0.72 l4.08 -3.06 l0 0.72 z M3.06 59.16 l4.14 -3.06 c0.18 0.12 0.36 0.24 0.48 0.36 l-4.26 3.18 l-0.06 0.06 c-0.06 0 -0.3 -0.42 -0.3 -0.54 z M4.26 60 l4.44 -3.36 l0.96 0 l-4.44 3.36 l-0.96 0 z M6.48 60 l4.44 -3.36 l1.02 0 l-4.5 3.36 l-0.96 0 z M8.7 60 l4.5 -3.36 l0.96 0 l-4.5 3.36 l-0.96 0 z M11.94 60 l-0.96 0 l4.44 -3.36 l0.42 0 l0 0.42 z M13.2 60 l2.64 -1.98 l0 0.72 l-1.68 1.26 l-0.96 0 z"></path></g><g id="SvgjsG1550" featurekey="nameFeature-0" transform="matrix(2.4185970985396748,0,0,2.4185970985396748,-3.8697551270080863,272.9768440437396)" fill="#111111"><path d="M1.6 40 l0 -28 l5.04 0 l0 28 l-5.04 0 z M12.932 40 l5.64 -28 l6.96 0 l5.64 28 l-5.12 0 l-1.24 -6.16 l-5.48 0 l-1.24 6.16 l-5.16 0 z M20.332 28.8 l3.44 0 l-1.72 -8.56 z M37.464 40 l0 -28 l5.36 0 l4.16 10.6 l4.16 -10.6 l5.36 0 l0 28 l-5.04 0 l0 -15 l-2.48 6.32 l-4 0 l-2.48 -6.32 l0 15 l-5.04 0 z M63.596 40 l0 -28 l11.96 0 l3.72 3.72 l0 10.76 l-3.72 3.72 l-6.92 0 l0 9.8 l-5.04 0 z M68.636 25.16 l4.84 0 l0.76 -0.76 l0 -6.6 l-0.76 -0.76 l-4.84 0 l0 8.12 z M85.568 40 l5.64 -28 l6.96 0 l5.64 28 l-5.12 0 l-1.24 -6.16 l-5.48 0 l-1.24 6.16 l-5.16 0 z M92.968 28.8 l3.44 0 l-1.72 -8.56 z M113.82 40 l-3.72 -3.72 l0 -24.28 l5.04 0 l0 22.2 l0.76 0.76 l4.64 0 l0.76 -0.76 l0 -22.2 l5.04 0 l0 24.28 l-3.72 3.72 l-8.8 0 z M133.432 40 l0 -28 l5.04 0 l0 22.96 l7.84 0 l0 5.04 l-12.88 0 z"></path></g></svg>