<svg version="1.0" xmlns="http://www.w3.org/2000/svg"
 width="2400.000000pt" height="2400.000000pt" viewBox="0 0 2400.000000 2400.000000"
 preserveAspectRatio="xMidYMid meet">

<g transform="translate(0.000000,2400.000000) scale(0.100000,-0.100000)"
fill="#000000" stroke="none">
<path d="M9408 16697 c-1413 -776 -2568 -1414 -2568 -1417 0 -11 5126 -2965
5145 -2965 19 1 5145 2954 5145 2965 0 6 -5135 2830 -5147 2830 -4 0 -1163
-636 -2575 -1413z"/>
<path d="M14920 13145 l-2565 -1482 -3 -2727 -2 -2726 78 42 c43 24 1199 660
2570 1413 l2492 1370 0 2798 c0 1538 -1 2797 -2 2796 -2 -1 -1157 -668 -2568
-1484z"/>
<path d="M6480 11828 l0 -2794 2559 -1407 c1407 -774 2561 -1407 2565 -1407 3
0 6 1225 6 2723 l0 2722 -2556 1475 c-1405 811 -2559 1477 -2564 1478 -7 2
-10 -1008 -10 -2790z"/>
</g>
</svg>
