<?xml version="1.0" standalone="no"?>
<!DOCTYPE svg PUBLIC "-//W3C//DTD SVG 20010904//EN"
 "http://www.w3.org/TR/2001/REC-SVG-20010904/DTD/svg10.dtd">
<svg version="1.0" xmlns="http://www.w3.org/2000/svg"
 width="300.000000pt" height="300.000000pt" viewBox="0 0 300.000000 300.000000"
 preserveAspectRatio="xMidYMid meet">

<g transform="translate(0.000000,300.000000) scale(0.100000,-0.100000)"
fill="#000000" stroke="none">
<path d="M159 2984 c-64 -19 -125 -82 -144 -147 -22 -75 -23 -2598 0 -2673 17
-58 56 -103 116 -136 l44 -23 1300 -3 c991 -2 1305 0 1322 9 13 7 26 10 29 6
3 -3 11 -1 18 4 6 5 27 20 46 32 19 12 45 38 57 57 12 19 26 40 31 45 4 6 6
17 4 27 -2 9 2 19 7 23 15 9 15 2581 0 2590 -5 4 -9 14 -7 23 2 10 0 22 -4 27
-5 6 -19 26 -31 45 -12 19 -38 45 -57 57 -19 12 -42 28 -50 35 -23 20 -2617
22 -2681 2z m781 -1484 l0 -800 -190 0 -191 0 3 68 3 67 108 2 107 1 3 666 2
666 -112 0 -113 0 0 65 0 65 190 0 190 0 0 -800z m1510 735 l0 -65 -115 0
-115 0 0 -665 0 -665 115 0 115 0 0 -70 0 -70 -195 0 -195 0 0 800 0 800 195
0 195 0 0 -65z m-1139 -469 c40 -140 94 -302 147 -440 l46 -120 22 51 c30 67
136 381 172 508 l28 100 83 3 83 3 -6 -38 c-20 -111 -215 -635 -297 -796 l-19
-37 -71 0 -70 0 -35 76 c-88 193 -254 648 -279 762 l-7 33 88 -3 87 -3 28 -99z"/>
</g>
</svg>
